PathFileType	4	(X/Y/Z)	jog.trc
DataRate	CameraRate	NumFrames	NumMarkers	Units	OrigDataRate	OrigDataStartFrame	OrigNumFrames
250.000000	250.000000	4	51	mm	250.000000	523	837
Frame#	Time	C7			RSH			LSH			MAN			T7			LARM			LELB			LFOREARM			LWR			RARM			RELB			RFOREARM			RWR			RASI			LASI			SACR			P1			P2			P3			LTHLP			LTHLD			LTHAP			LTHAD			LLEPI			LPAT			LTIAP			LTIAD			LTILAT			LLMAL			LHEEL			LMFS			LMFL			LP1MT			LTOE			LP5MT			RTHLP			RTHLD			RTHAP			RTHAD			RLEPI			RPAT			RTIAP			RTIAD			RTILAT			RLMAL			RHEEL			RMFS			RMFL			RP1MT			RTOE			RP5MT			
		X1	Y1	Z1	X2	Y2	Z2	X3	Y3	Z3	X4	Y4	Z4	X5	Y5	Z5	X6	Y6	Z6	X7	Y7	Z7	X8	Y8	Z8	X9	Y9	Z9	X10	Y10	Z10	X11	Y11	Z11	X12	Y12	Z12	X13	Y13	Z13	X14	Y14	Z14	X15	Y15	Z15	X16	Y16	Z16	X17	Y17	Z17	X18	Y18	Z18	X19	Y19	Z19	X20	Y20	Z20	X21	Y21	Z21	X22	Y22	Z22	X23	Y23	Z23	X24	Y24	Z24	X25	Y25	Z25	X26	Y26	Z26	X27	Y27	Z27	X28	Y28	Z28	X29	Y29	Z29	X30	Y30	Z30	X31	Y31	Z31	X32	Y32	Z32	X33	Y33	Z33	X34	Y34	Z34	X35	Y35	Z35	X36	Y36	Z36	X37	Y37	Z37	X38	Y38	Z38	X39	Y39	Z39	X40	Y40	Z40	X41	Y41	Z41	X42	Y42	Z42	X43	Y43	Z43	X44	Y44	Z44	X45	Y45	Z45	X46	Y46	Z46	X47	Y47	Z47	X48	Y48	Z48	X49	Y49	Z49	X50	Y50	Z50	X51	Y51	Z51	

524	2.092	1974.054809570313	1481.937377929688	220.5664978027345	2024.626708984376	1466.101196289063	387.4479064941409	1981.049194335938	1450.69580078125	50.14453887939456	2110.957275390626	1370.369995117188	209.6575927734376	1890.152587890626	1302.42138671875	234.2826080322267	1907.964111328126	1274.517578125	-52.25382995605472	1845.630126953126	1157.349365234375	-94.16229248046878	1921.787719726563	1031.70654296875	-76.63761138916018	1973.360229492188	913.9221801757817	-54.69184875488284	1968.975585937501	1298.013305664063	490.4081726074221	1916.994995117188	1181.289184570313	543.3994750976565	2029.939208984376	1102.230834960938	506.7149047851565	2132.627441406251	1032.599487304688	469.6544189453127	2076.192382812501	1002.634216308594	323.9774475097657	2047.814208984376	1016.6806640625	111.3239135742188	1879.352661132813	1036.467407226563	247.1550598144532	1860.934448242188	1010.526184082032	194.5823211669923	1874.451904296876	1004.413635253907	299.3116149902345	1843.945556640626	948.6754760742192	246.1790008544923	2048.055908203126	715.1729125976565	51.32036972045901	2099.671875000001	616.0732421875002	69.97879028320315	2175.946044921876	760.3227539062502	110.7565460205079	2203.466796875001	654.9306640625002	127.282829284668	2144.322753906251	507.6896057128909	96.28083038330084	2227.498291015626	528.4046630859377	157.8583679199219	2126.778320312501	342.1686096191407	188.5800018310547	2070.758056640626	214.6929626464845	203.0851898193361	2063.477050781251	285.2056884765626	117.0724029541016	1989.607055664063	87.90186309814456	161.1542510986329	1916.781005859376	61.48758316040042	208.2522735595704	2085.645019531251	75.29284667968753	218.3761749267579	2056.075439453126	49.497184753418	156.1038208007813	2137.898193359376	30.56729888916017	254.5735015869142	2185.518066406251	36.6701126098633	219.9280242919923	2117.163574218751	14.1934928894043	128.1051788330079	2029.003906250001	714.267761230469	408.6536254882815	2052.171630859376	605.0924072265627	391.0981140136721	2139.190673828126	707.5784912109377	314.1522827148439	2149.382080078126	608.8145751953127	306.8626403808595	2056.648193359376	477.1372070312502	352.2320251464845	2128.221679687501	432.8782653808596	294.9939270019532	1863.905639648438	439.4992675781252	271.9591674804689	1739.605957031251	452.4723815917971	264.0425109863282	1851.082031250001	487.5596313476565	350.7417907714845	1617.170288085938	490.8138427734377	325.6139221191407	1588.617797851563	550.330505371094	263.103240966797	1604.317749023438	378.1004028320314	300.4886779785157	1576.522827148438	432.1498107910159	344.7545471191407	1549.016723632813	317.5081481933595	273.3007812500001	1563.565917968751	296.6190795898439	317.394012451172	1534.114135742188	371.4407043457032	386.2712402343752	
525	2.096	1988.200073242188	1480.067504882813	219.9344024658204	2038.127319335938	1464.12939453125	386.9883422851565	1996.344238281251	1447.988403320313	49.51861190795901	2124.990966796876	1367.946533203125	210.1844635009767	1903.519409179688	1300.88671875	233.6736450195314	1926.226562500001	1271.098510742188	-53.87167739868167	1867.513305664063	1151.39306640625	-95.99147033691409	1945.185180664063	1026.871337890625	-77.37576293945315	1997.991699218751	910.0664672851567	-55.49393463134768	1980.323120117188	1296.815307617188	489.3741455078127	1926.316528320313	1180.839721679688	542.425476074219	2037.767089843751	1098.017333984375	507.668640136719	2137.966064453126	1023.720581054688	473.2029418945315	2088.618164062501	1000.949645996094	323.8331604003907	2060.045166015626	1014.80859375	110.9591598510743	1891.906860351563	1033.309204101563	247.2794189453126	1872.978759765626	1007.824340820313	195.2058715820314	1886.448242187501	1001.255065917969	299.9718627929689	1856.070922851563	945.8688964843755	246.4046020507814	2058.312500000001	712.8299560546877	51.42685317993167	2108.975830078126	613.156921386719	70.05129241943362	2185.419677734376	758.0485839843752	111.2778320312501	2212.839599609376	651.9947509765627	126.8843383789063	2151.513671875001	504.9258117675784	96.4196395874024	2236.170410156251	525.1730957031252	155.7321014404297	2132.719970703126	339.314178466797	188.0606079101563	2073.905517578126	213.1089935302736	202.2625274658204	2069.025146484376	283.5254821777345	116.4695129394532	1990.339477539063	87.41078948974612	159.9940795898438	1917.402465820313	61.86798477172854	206.5026092529298	2085.498779296876	74.98633575439456	217.6980895996095	2056.182373046876	49.16773986816409	155.5587005615235	2137.836181640626	30.6000442504883	254.3847961425782	2185.634277343751	36.35164260864259	219.9115295410157	2117.018798828126	13.83893394470216	127.9083328247071	2046.853271484376	713.4815063476565	409.2115478515627	2072.981445312501	604.7242431640627	391.6768493652346	2157.162597656251	708.8166503906252	313.9714965820314	2169.917480468751	610.4754638671877	307.2853393554689	2080.432617187501	477.0095214843752	352.9732360839845	2152.253417968751	434.0015258789065	295.4971008300782	1887.519653320313	439.3796081542971	271.6770324707032	1763.522460937501	452.4637451171877	263.9427185058595	1875.274291992188	486.7874755859377	351.5206604003907	1640.969848632813	490.2418212890627	326.3079528808595	1612.455200195313	550.0410766601565	264.2096557617189	1629.190429687501	377.5555419921876	299.4476928710939	1600.750976562501	430.8568115234377	344.4599914550782	1573.757568359376	317.1648864746095	271.5290832519532	1588.410156250001	295.689666748047	315.3428039550782	1558.856445312501	369.5283203125001	385.030212402344	
526	2.1	2002.218627929688	1478.391357421875	219.1577301025392	2051.520019531251	1462.19580078125	386.7780456542971	2011.534301757813	1446.188110351563	48.62527847290042	2139.063964843751	1365.710815429688	210.5885467529298	1916.905151367188	1299.475952148438	232.9708709716798	1945.444946289063	1267.156005859375	-54.75709152221683	1889.451416015626	1145.979614257813	-97.66673278808599	1968.699951171876	1022.688659667969	-77.91535949707034	2022.752075195313	906.942504882813	-56.13979339599612	1991.375000000001	1295.540771484375	488.4028320312502	1935.885009765626	1180.19677734375	541.1304321289065	2045.818969726563	1093.984008789063	508.385925292969	2143.208251953126	1015.3310546875	476.6225585937502	2101.296386718751	999.3649291992192	323.546600341797	2071.962158203126	1013.113464355469	110.608741760254	1904.992431640626	1030.52587890625	247.241424560547	1885.157348632813	1005.591003417969	195.7752227783204	1898.381225585938	998.5151977539067	301.0876770019532	1868.307373046876	943.358764648438	246.8064575195314	2068.510009765626	710.4687500000002	51.47398757934573	2117.583007812501	610.041687011719	70.19898986816409	2194.540039062501	756.013854980469	111.3747634887696	2221.979492187501	648.7898559570315	126.5550918579102	2159.490966796876	502.1262207031252	96.1057968139649	2244.931152343751	521.7954711914065	154.0513916015626	2137.865722656251	336.7642822265626	187.9275512695313	2076.390380859376	211.7476043701173	201.9047393798829	2074.499023437501	281.4775695800782	115.7582702636719	1990.929199218751	87.10340881347659	159.1369171142579	1917.227416992188	62.36019515991214	205.4472198486329	2085.989257812501	75.05212402343753	216.7941284179689	2056.416748046876	48.93004226684573	154.8730010986329	2137.654541015626	30.4352378845215	254.1969299316407	2185.542968750001	36.37791442871095	220.0411376953126	2117.255126953126	13.59959506988526	127.6941452026368	2065.398193359376	713.0005493164065	409.5577087402346	2093.612792968751	604.8592529296877	392.4829101562502	2173.803710937501	710.5156860351565	313.6358337402345	2189.918701171876	612.669372558594	307.6542358398439	2103.796630859376	477.4106140136721	353.4447631835939	2176.565185546876	435.8243408203127	295.8960571289064	1911.530151367188	439.4849853515627	271.616912841797	1787.820312500001	452.3393249511721	263.9249877929689	1899.420410156251	486.2669067382815	352.1489257812501	1666.196289062501	488.287048339844	325.102264404297	1635.753051757813	549.269958496094	265.3238525390626	1653.313110351563	376.6627807617189	297.9419555664064	1624.976318359376	429.0555725097659	344.1217651367189	1598.705322265626	315.8668212890626	269.6368713378907	1614.077880859376	294.372772216797	313.0599060058595	1583.259277343751	366.8477478027345	383.9772033691407	
527	2.104	2016.165527343751	1476.780639648438	218.5777130126954	2064.644531250001	1460.827880859375	386.3638916015627	2026.844604492188	1444.165405273438	47.94361114501955	2152.473632812501	1363.702026367188	210.6895446777345	1930.260009765626	1298.267944335938	232.2779998779298	1964.101562500001	1263.681030273438	-55.69612121582034	1911.626586914063	1141.21435546875	-98.97434997558599	1991.927124023438	1019.087524414063	-78.37532043457034	2047.457519531251	904.615112304688	-56.5361137390137	2002.169311523438	1294.88916015625	487.7425537109377	1945.078491210938	1180.101318359375	540.1403808593752	2053.474609375001	1090.780151367188	509.1891174316409	2147.738037109376	1007.6611328125	480.2749633789065	2113.978759765626	998.5587768554692	323.1313781738282	2083.947509765626	1011.609191894532	110.3379974365235	1916.747192382813	1028.909301757813	248.4987640380861	1897.379882812501	1003.881896972657	196.3482055664064	1910.990600585938	996.3195190429692	301.238494873047	1880.527465820313	941.5033569335942	247.4775390625001	2078.239501953126	708.078308105469	51.64738464355472	2125.493164062501	606.8466796875002	70.35839843750003	2204.574218750001	753.9324340820315	111.8298263549805	2231.732421875001	645.483581542969	126.5861892700196	2167.068603515626	499.1196594238284	95.67517852783206	2253.197753906251	518.1030273437502	153.0287780761719	2142.215332031251	334.5052185058595	187.8482055664063	2078.088623046876	210.6070861816407	201.8955230712892	2079.677001953126	279.405487060547	115.1616668701172	1991.508178710938	86.9716720581055	158.2415008544922	1917.301513671876	62.98071670532229	204.454315185547	2085.791503906251	74.84404754638675	216.4192962646486	2056.343750000001	48.53656005859378	154.4644775390626	2137.587646484376	30.46011543273927	254.106903076172	2185.678222656251	36.11091995239259	219.9382781982423	2117.314941406251	13.35853099822999	127.6246414184571	2083.794921875001	712.902038574219	409.865661621094	2114.649169921876	605.5528564453127	393.1228942871096	2191.614257812501	712.8895263671877	313.509246826172	2209.529296875001	615.4938964843752	307.7406005859376	2127.168701171876	478.1406555175784	353.6500854492189	2200.211914062501	438.154235839844	296.1100463867189	1936.192871093751	439.5732727050784	271.9489135742189	1811.815673828126	452.0814514160159	263.868377685547	1923.400268554688	485.8568115234377	352.8347778320314	1690.205322265626	486.2708740234377	325.1109619140626	1659.101440429688	548.1316528320315	266.3069152832032	1678.404052734376	375.268768310547	297.1322631835939	1649.297119140626	426.9236145019534	343.6614379882814	1624.346313476563	314.5971679687501	267.8545837402345	1639.563110351563	292.3821105957032	310.9016723632814	1608.212890625001	363.7359924316407	382.6088867187501	
